<?xml version="1.0" encoding="UTF-8"?>
<svg width="17px" height="17px" viewBox="0 0 17 17" version="1.1" xmlns="http://www.w3.org/2000/svg" xmlns:xlink="http://www.w3.org/1999/xlink">
    <!-- Generator: Sketch 52.5 (67469) - http://www.bohemiancoding.com/sketch -->
    <title>分组 3</title>
    <desc>Created with Sketch.</desc>
    <g id="personai-center" stroke="none" stroke-width="1" fill="none" fill-rule="evenodd">
        <g id="Shortcut1" transform="translate(-308.000000, -12.000000)">
            <g id="分组-3" transform="translate(308.000000, 13.000000)">
                <path d="M8.3157,5.7548 C7.1857,5.7548 6.2687,6.6738 6.2687,7.8018 C6.2687,8.9288 7.1857,9.8498 8.3157,9.8498 C9.4447,9.8498 10.3617,8.9308 10.3617,7.8028 C10.3617,6.6758 9.4447,5.7548 8.3157,5.7548 M8.3157,10.8738 C6.6227,10.8738 5.2447,9.4968 5.2447,7.8028 C5.2447,6.1098 6.6227,4.7328 8.3157,4.7328 C10.0077,4.7328 11.3857,6.1098 11.3857,7.8028 C11.3857,9.4968 10.0077,10.8738 8.3157,10.8738 M8.3157,13.3278 C9.1477,13.3278 9.9417,13.6448 10.5447,14.2208 L10.7437,14.4308 C10.8157,14.4828 10.9037,14.5088 10.9917,14.5088 C11.0227,14.5088 11.0367,14.5048 11.0377,14.5048 C11.0377,14.5048 11.3017,14.4038 11.8997,14.0588 C12.4917,13.7168 12.7147,13.5328 12.7167,13.5308 C12.7737,13.4828 12.8247,13.3108 12.8017,13.2328 L12.7327,13.0088 C12.5297,12.1488 12.6467,11.2968 13.0567,10.5808 C13.4707,9.8598 14.1467,9.3278 14.9437,9.0928 L15.2227,9.0258 C15.2977,9.0078 15.4237,8.8758 15.4377,8.8028 C15.4377,8.8018 15.4827,8.5188 15.4827,7.8268 C15.4817,7.1408 15.4367,6.8598 15.4347,6.8568 C15.4207,6.7828 15.2947,6.6478 15.2237,6.6308 L14.9987,6.5788 C14.1357,6.3198 13.4777,5.8048 13.0567,5.0788 C12.6497,4.3688 12.5257,3.5308 12.7087,2.7328 L12.7997,2.4288 C12.8227,2.3548 12.7707,2.1728 12.7137,2.1238 C12.7117,2.1218 12.4937,1.9438 11.8977,1.5978 C11.2957,1.2508 11.0307,1.1478 11.0277,1.1478 C10.9267,1.1508 10.8297,1.1788 10.7417,1.2288 L10.5867,1.3978 C9.3367,2.5858 7.2787,2.5698 6.1087,1.4598 L5.8887,1.2268 C5.8097,1.1788 5.7177,1.1528 5.6257,1.1528 C5.5977,1.1528 5.3367,1.2528 4.7337,1.6008 C4.1517,1.9378 3.9267,2.1168 3.9027,2.1368 C3.8597,2.1728 3.8057,2.3458 3.8307,2.4248 L3.8997,2.6478 C4.1067,3.5078 3.9877,4.3598 3.5757,5.0788 C3.1697,5.7908 2.5057,6.3218 1.7197,6.5588 L1.4047,6.6318 C1.3327,6.6498 1.2067,6.7828 1.1937,6.8548 C1.1937,6.8548 1.1497,7.1378 1.1497,7.8308 C1.1497,8.5228 1.1937,8.8018 1.1937,8.8048 C1.2087,8.8778 1.3337,9.0118 1.4047,9.0268 L1.6207,9.0758 C2.4697,9.3238 3.1507,9.8548 3.5717,10.5788 C3.9857,11.3018 4.1097,12.1348 3.9197,12.9298 L3.8327,13.2278 C3.8077,13.3068 3.8597,13.4878 3.9187,13.5378 C3.9297,13.5468 4.1617,13.7298 4.7357,14.0608 C5.3347,14.4068 5.5977,14.5088 5.6007,14.5088 C5.7037,14.5088 5.8027,14.4818 5.8927,14.4298 L6.0377,14.2708 C6.6787,13.6538 7.4807,13.3278 8.3157,13.3278 M10.9917,15.5328 C10.6117,15.5328 10.2207,15.3748 9.9937,15.1278 L9.8167,14.9418 C9.0257,14.1898 7.6257,14.1628 6.7667,14.9858 L6.6377,15.1298 C6.3817,15.4058 5.9397,15.5298 5.6157,15.5298 C5.4807,15.5298 5.3577,15.5088 5.2517,15.4708 C5.2517,15.4708 4.9477,15.3658 4.2237,14.9448 C3.6137,14.5918 3.3367,14.3808 3.2667,14.3258 C2.8847,14.0008 2.7087,13.3898 2.8527,12.9278 L2.9317,12.6618 C3.1767,11.5188 2.4907,10.3808 1.3627,10.0658 L1.1767,10.0238 C0.7047,9.9168 0.2677,9.4568 0.1857,8.9788 C0.1577,8.9158 0.1257,8.4098 0.1257,7.8288 C0.1257,7.0738 0.1727,6.7128 0.1927,6.6388 C0.2697,6.1978 0.7047,5.7408 1.1727,5.6318 L1.4547,5.5668 C1.9767,5.3998 2.4147,5.0428 2.6837,4.5648 C2.9697,4.0648 3.0507,3.4738 2.9097,2.9148 L2.8487,2.7248 C2.7067,2.2628 2.8787,1.6578 3.2447,1.3478 C3.3217,1.2838 3.5957,1.0718 4.2177,0.7118 C4.8707,0.3338 5.1837,0.2098 5.2407,0.1888 C5.3597,0.1458 5.4857,0.1248 5.6227,0.1248 C5.9187,0.1248 6.3637,0.2308 6.6357,0.5268 L6.8307,0.7348 C7.5707,1.4338 9.0377,1.4488 9.8547,0.6768 L9.9947,0.5248 C10.3527,0.1388 11.0077,0.0538 11.3787,0.1858 C11.4427,0.2098 11.7547,0.3338 12.4107,0.7118 C13.0687,1.0918 13.3517,1.3168 13.4067,1.3698 C13.7457,1.6558 13.9217,2.2628 13.7797,2.7268 L13.6987,2.9978 C13.5837,3.5338 13.6707,4.0928 13.9447,4.5668 C14.2307,5.0618 14.6867,5.4168 15.2587,5.5888 L15.4527,5.6318 C15.9237,5.7408 16.3577,6.1978 16.4437,6.6758 C16.4637,6.7168 16.5047,7.1478 16.5067,7.8258 C16.5067,8.5258 16.4617,8.9328 16.4347,9.0338 C16.3627,9.4588 15.9277,9.9168 15.4557,10.0238 L15.2077,10.0828 C14.6717,10.2468 14.2227,10.6088 13.9447,11.0928 C13.6607,11.5928 13.5797,12.1848 13.7207,12.7418 L13.7817,12.9328 C13.9177,13.4328 13.7597,13.9668 13.3767,14.3138 C13.3257,14.3558 13.0637,14.5678 12.4127,14.9428 C11.7167,15.3428 11.4137,15.4558 11.3807,15.4688 C11.2547,15.5128 11.1247,15.5348 10.9917,15.5328" id="Fill-7" fill="#424242"></path>
                <path d="M8.3157,5.7548 C7.1857,5.7548 6.2687,6.6738 6.2687,7.8018 C6.2687,8.9288 7.1857,9.8498 8.3157,9.8498 C9.4447,9.8498 10.3617,8.9308 10.3617,7.8028 C10.3617,6.6758 9.4447,5.7548 8.3157,5.7548 Z M8.3157,10.8738 C6.6227,10.8738 5.2447,9.4968 5.2447,7.8028 C5.2447,6.1098 6.6227,4.7328 8.3157,4.7328 C10.0077,4.7328 11.3857,6.1098 11.3857,7.8028 C11.3857,9.4968 10.0077,10.8738 8.3157,10.8738 Z M8.3157,13.3278 C9.1477,13.3278 9.9417,13.6448 10.5447,14.2208 L10.7437,14.4308 C10.8157,14.4828 10.9037,14.5088 10.9917,14.5088 C11.0227,14.5088 11.0367,14.5048 11.0377,14.5048 C11.0377,14.5048 11.3017,14.4038 11.8997,14.0588 C12.4917,13.7168 12.7147,13.5328 12.7167,13.5308 C12.7737,13.4828 12.8247,13.3108 12.8017,13.2328 L12.7327,13.0088 C12.5297,12.1488 12.6467,11.2968 13.0567,10.5808 C13.4707,9.8598 14.1467,9.3278 14.9437,9.0928 L15.2227,9.0258 C15.2977,9.0078 15.4237,8.8758 15.4377,8.8028 C15.4377,8.8018 15.4827,8.5188 15.4827,7.8268 C15.4817,7.1408 15.4367,6.8598 15.4347,6.8568 C15.4207,6.7828 15.2947,6.6478 15.2237,6.6308 L14.9987,6.5788 C14.1357,6.3198 13.4777,5.8048 13.0567,5.0788 C12.6497,4.3688 12.5257,3.5308 12.7087,2.7328 L12.7997,2.4288 C12.8227,2.3548 12.7707,2.1728 12.7137,2.1238 C12.7117,2.1218 12.4937,1.9438 11.8977,1.5978 C11.2957,1.2508 11.0307,1.1478 11.0277,1.1478 C10.9267,1.1508 10.8297,1.1788 10.7417,1.2288 L10.5867,1.3978 C9.3367,2.5858 7.2787,2.5698 6.1087,1.4598 L5.8887,1.2268 C5.8097,1.1788 5.7177,1.1528 5.6257,1.1528 C5.5977,1.1528 5.3367,1.2528 4.7337,1.6008 C4.1517,1.9378 3.9267,2.1168 3.9027,2.1368 C3.8597,2.1728 3.8057,2.3458 3.8307,2.4248 L3.8997,2.6478 C4.1067,3.5078 3.9877,4.3598 3.5757,5.0788 C3.1697,5.7908 2.5057,6.3218 1.7197,6.5588 L1.4047,6.6318 C1.3327,6.6498 1.2067,6.7828 1.1937,6.8548 C1.1937,6.8548 1.1497,7.1378 1.1497,7.8308 C1.1497,8.5228 1.1937,8.8018 1.1937,8.8048 C1.2087,8.8778 1.3337,9.0118 1.4047,9.0268 L1.6207,9.0758 C2.4697,9.3238 3.1507,9.8548 3.5717,10.5788 C3.9857,11.3018 4.1097,12.1348 3.9197,12.9298 L3.8327,13.2278 C3.8077,13.3068 3.8597,13.4878 3.9187,13.5378 C3.9297,13.5468 4.1617,13.7298 4.7357,14.0608 C5.3347,14.4068 5.5977,14.5088 5.6007,14.5088 C5.7037,14.5088 5.8027,14.4818 5.8927,14.4298 L6.0377,14.2708 C6.6787,13.6538 7.4807,13.3278 8.3157,13.3278 Z M10.9917,15.5328 C10.6117,15.5328 10.2207,15.3748 9.9937,15.1278 L9.8167,14.9418 C9.0257,14.1898 7.6257,14.1628 6.7667,14.9858 L6.6377,15.1298 C6.3817,15.4058 5.9397,15.5298 5.6157,15.5298 C5.4807,15.5298 5.3577,15.5088 5.2517,15.4708 C5.2517,15.4708 4.9477,15.3658 4.2237,14.9448 C3.6137,14.5918 3.3367,14.3808 3.2667,14.3258 C2.8847,14.0008 2.7087,13.3898 2.8527,12.9278 L2.9317,12.6618 C3.1767,11.5188 2.4907,10.3808 1.3627,10.0658 L1.1767,10.0238 C0.7047,9.9168 0.2677,9.4568 0.1857,8.9788 C0.1577,8.9158 0.1257,8.4098 0.1257,7.8288 C0.1257,7.0738 0.1727,6.7128 0.1927,6.6388 C0.2697,6.1978 0.7047,5.7408 1.1727,5.6318 L1.4547,5.5668 C1.9767,5.3998 2.4147,5.0428 2.6837,4.5648 C2.9697,4.0648 3.0507,3.4738 2.9097,2.9148 L2.8487,2.7248 C2.7067,2.2628 2.8787,1.6578 3.2447,1.3478 C3.3217,1.2838 3.5957,1.0718 4.2177,0.7118 C4.8707,0.3338 5.1837,0.2098 5.2407,0.1888 C5.3597,0.1458 5.4857,0.1248 5.6227,0.1248 C5.9187,0.1248 6.3637,0.2308 6.6357,0.5268 L6.8307,0.7348 C7.5707,1.4338 9.0377,1.4488 9.8547,0.6768 L9.9947,0.5248 C10.3527,0.1388 11.0077,0.0538 11.3787,0.1858 C11.4427,0.2098 11.7547,0.3338 12.4107,0.7118 C13.0687,1.0918 13.3517,1.3168 13.4067,1.3698 C13.7457,1.6558 13.9217,2.2628 13.7797,2.7268 L13.6987,2.9978 C13.5837,3.5338 13.6707,4.0928 13.9447,4.5668 C14.2307,5.0618 14.6867,5.4168 15.2587,5.5888 L15.4527,5.6318 C15.9237,5.7408 16.3577,6.1978 16.4437,6.6758 C16.4637,6.7168 16.5047,7.1478 16.5067,7.8258 C16.5067,8.5258 16.4617,8.9328 16.4347,9.0338 C16.3627,9.4588 15.9277,9.9168 15.4557,10.0238 L15.2077,10.0828 C14.6717,10.2468 14.2227,10.6088 13.9447,11.0928 C13.6607,11.5928 13.5797,12.1848 13.7207,12.7418 L13.7817,12.9328 C13.9177,13.4328 13.7597,13.9668 13.3767,14.3138 C13.3257,14.3558 13.0637,14.5678 12.4127,14.9428 C11.7167,15.3428 11.4137,15.4558 11.3807,15.4688 C11.2547,15.5128 11.1247,15.5348 10.9917,15.5328 Z" id="Stroke-9" stroke="#333333" stroke-width="0.25"></path>
            </g>
        </g>
    </g>
</svg>