<?xml version="1.0" encoding="UTF-8"?>
<svg width="40px" height="40px" viewBox="0 0 40 40" version="1.1" xmlns="http://www.w3.org/2000/svg" xmlns:xlink="http://www.w3.org/1999/xlink">
    <!-- Generator: Sketch 52.5 (67469) - http://www.bohemiancoding.com/sketch -->
    <title>分组</title>
    <desc>Created with Sketch.</desc>
    <g id="personai-center" stroke="none" stroke-width="1" fill="none" fill-rule="evenodd">
        <g id="App1" transform="translate(-321.000000, -225.000000)">
            <g id="分组" transform="translate(321.000000, 225.000000)">
                <g fill="#FFFFFF" id="Fill-1">
                    <path d="M40.0001,19.9999 C40.0001,31.0459 31.0461,39.9999 20.0001,39.9999 C8.9541,39.9999 0.0001,31.0459 0.0001,19.9999 C0.0001,8.9549 8.9541,-0.0001 20.0001,-0.0001 C31.0461,-0.0001 40.0001,8.9549 40.0001,19.9999"></path>
                </g>
                <path d="M13.2852,19.9559 C13.2852,21.2299 12.2522,22.2639 10.9772,22.2639 C9.7042,22.2639 8.6712,21.2299 8.6712,19.9559 C8.6712,18.6819 9.7042,17.6489 10.9772,17.6489 C12.2522,17.6489 13.2852,18.6819 13.2852,19.9559" id="Fill-3" fill="#666666"></path>
                <path d="M22.3067,19.9559 C22.3067,21.2299 21.2737,22.2639 19.9987,22.2639 C18.7247,22.2639 17.6927,21.2299 17.6927,19.9559 C17.6927,18.6819 18.7247,17.6489 19.9987,17.6489 C21.2737,17.6489 22.3067,18.6819 22.3067,19.9559" id="Fill-5" fill="#666666"></path>
                <path d="M31.0733,19.9559 C31.0733,21.2299 30.0403,22.2639 28.7653,22.2639 C27.4913,22.2639 26.4593,21.2299 26.4593,19.9559 C26.4593,18.6819 27.4913,17.6489 28.7653,17.6489 C30.0403,17.6489 31.0733,18.6819 31.0733,19.9559" id="Fill-7" fill="#666666"></path>
            </g>
        </g>
    </g>
</svg>