<?xml version="1.0" encoding="UTF-8"?>
<svg width="32px" height="22px" viewBox="0 0 32 22" version="1.1" xmlns="http://www.w3.org/2000/svg" xmlns:xlink="http://www.w3.org/1999/xlink">
    <!-- Generator: Sketch 52.5 (67469) - http://www.bohemiancoding.com/sketch -->
    <title>分组</title>
    <desc>Created with Sketch.</desc>
    <defs>
        <rect id="path-1" x="0" y="0" width="32" height="32"></rect>
    </defs>
    <g id="personai-center" stroke="none" stroke-width="1" fill="none" fill-rule="evenodd">
        <g id="Apple-TV" transform="translate(-1639.000000, -1041.000000)">
            <g id="分组" transform="translate(1639.000000, 1036.000000)">
                <mask id="mask-2" fill="white">
                    <use xlink:href="#path-1"></use>
                </mask>
                <g id="Mask" fill-rule="nonzero"></g>
                <g mask="url(#mask-2)">
                    <g transform="translate(0.000000, 5.000000)">
                        <path d="M21.7698909,12.1212121 C21.7698909,17.206303 17.6486788,21.3284848 12.5635879,21.3284848 C7.47849697,21.3284848 3.35728485,17.206303 3.35728485,12.1212121 C3.35728485,7.03612121 7.47849697,2.91393939 12.5635879,2.91393939 C17.6486788,2.91393939 21.7698909,7.03612121 21.7698909,12.1212121" id="Fill-2" fill="#2E61FF"></path>
                        <path d="M11.4242909,11.0601697 C10.2635636,9.59495758 8.46768485,8.65532121 6.45362424,8.65532121 C2.95204848,8.65532121 0.113745455,11.4926545 0.113745455,14.9942303 C0.113745455,18.4841697 2.93362424,21.3147152 6.41968485,21.3331394 L6.41871515,21.3331394 L21.6332606,21.3331394 L11.4242909,11.0601697 Z" id="Fill-4" fill="#5397FF"></path>
                        <path d="M21.6675879,0.705066667 C15.9715879,0.705066667 11.3529212,5.32276364 11.3529212,11.0187636 L11.3529212,21.3334303 L21.6675879,21.3334303 C27.3635879,21.3334303 31.9822545,16.7157333 31.9822545,11.0187636 C31.9822545,5.32276364 27.3635879,0.705066667 21.6675879,0.705066667" id="Fill-6" fill="#FFFFFF"></path>
                        <path d="M11.4242909,11.0601697 C10.2635636,9.59495758 8.46768485,8.65532121 6.45362424,8.65532121 C2.95204848,8.65532121 0.113745455,11.4926545 0.113745455,14.9942303 C0.113745455,18.4841697 2.93362424,21.3147152 6.41968485,21.3331394 L6.41871515,21.3331394 L21.6332606,21.3331394 L11.4242909,11.0601697 Z" id="Fill-8" fill="#5397FF"></path>
                    </g>
                </g>
            </g>
        </g>
    </g>
</svg>